<svg xmlns="http://www.w3.org/2000/svg" xmlns:svg="http://www.w3.org/2000/svg" xmlns:xlink="http://www.w3.org/1999/xlink" id="svg5" width="256" height="256" version="1.1" viewBox="0 0 67.733 67.733"><defs id="defs2"><linearGradient id="linearGradient7027"><stop id="stop7023" offset="0" style="stop-color:#00aad4;stop-opacity:1"/><stop id="stop7025" offset="1" style="stop-color:#00aad4;stop-opacity:.48504983"/></linearGradient><linearGradient id="linearGradient5351"><stop id="stop5347" offset="0" style="stop-color:#a02c5a;stop-opacity:1"/><stop id="stop5349" offset="1" style="stop-color:#a02c5a;stop-opacity:0"/></linearGradient><marker id="TriangleOutS" orient="auto" refX="0" refY="0" style="overflow:visible"><path id="path1477" d="M 5.77,0 -2.88,5 V -5 Z" transform="scale(0.2)" style="fill:context-stroke;fill-rule:evenodd;stroke:context-stroke;stroke-width:1pt"/></marker><marker id="marker2716" orient="auto" refX="0" refY="0" style="overflow:visible"><path id="path2714" d="M 8.7185878,4.0337352 -2.2072895,0.01601326 8.7185884,-4.0017078 c -1.7454984,2.3720609 -1.7354408,5.6174519 -6e-7,8.035443 z" transform="matrix(-0.3,0,0,-0.3,0.69,0)" style="fill:context-stroke;fill-rule:evenodd;stroke-width:.625;stroke-linejoin:round"/></marker><marker id="Arrow2Send" orient="auto" refX="0" refY="0" style="overflow:visible"><path id="path1362" d="M 8.7185878,4.0337352 -2.2072895,0.01601326 8.7185884,-4.0017078 c -1.7454984,2.3720609 -1.7354408,5.6174519 -6e-7,8.035443 z" transform="matrix(-0.3,0,0,-0.3,0.69,0)" style="fill:context-stroke;fill-rule:evenodd;stroke-width:.625;stroke-linejoin:round"/></marker><marker id="TriangleOutM" orient="auto" refX="0" refY="0" style="overflow:visible"><path id="path1474" d="M 5.77,0 -2.88,5 V -5 Z" transform="scale(0.4)" style="fill:context-stroke;fill-rule:evenodd;stroke:context-stroke;stroke-width:1pt"/></marker><marker id="Arrow1Lend" orient="auto" refX="0" refY="0" style="overflow:visible"><path id="path1332" d="M 0,0 5,-5 -12.5,0 5,5 Z" transform="matrix(-0.8,0,0,-0.8,-10,0)" style="fill:context-stroke;fill-rule:evenodd;stroke:context-stroke;stroke-width:1pt"/></marker><marker id="TriangleOutL" orient="auto" refX="0" refY="0" style="overflow:visible"><path id="path1471" d="M 5.77,0 -2.88,5 V -5 Z" transform="scale(0.8)" style="fill:context-stroke;fill-rule:evenodd;stroke:context-stroke;stroke-width:1pt"/></marker><marker id="EmptyTriangleOutL" orient="auto" refX="0" refY="0" style="overflow:visible"><path id="path1489" d="M 5.77,0 -2.88,5 V -5 Z" transform="matrix(0.8,0,0,0.8,-4.8,0)" style="fill:context-fill;fill-rule:evenodd;stroke:context-stroke;stroke-width:1pt"/></marker><marker id="Arrow1Lstart" orient="auto" refX="0" refY="0" style="overflow:visible"><path id="path1329" d="M 0,0 5,-5 -12.5,0 5,5 Z" transform="matrix(0.8,0,0,0.8,10,0)" style="fill:context-stroke;fill-rule:evenodd;stroke:context-stroke;stroke-width:1pt"/></marker><marker id="TriangleOutS-3" orient="auto" refX="0" refY="0" style="overflow:visible"><path id="path1477-6" d="M 5.77,0 -2.88,5 V -5 Z" transform="scale(0.2)" style="fill:context-stroke;fill-rule:evenodd;stroke:context-stroke;stroke-width:1pt"/></marker><linearGradient id="linearGradient5353" x1="26.459" x2="64.552" y1="22.077" y2="59.05" gradientTransform="translate(-9.2573242,-4.3857965)" gradientUnits="userSpaceOnUse" xlink:href="#linearGradient5351"/><linearGradient id="linearGradient7029" x1="-85.887" x2="-63.059" y1="27.012" y2="20.404" gradientTransform="translate(8.4268581,-5.8241715)" gradientUnits="userSpaceOnUse" xlink:href="#linearGradient7027"/><marker id="TriangleOutS-1" orient="auto" refX="0" refY="0" style="overflow:visible"><path id="path1477-2" d="M 5.77,0 -2.88,5 V -5 Z" transform="scale(0.2)" style="fill:context-stroke;fill-rule:evenodd;stroke:context-stroke;stroke-width:1pt"/></marker><filter id="filter16043" width="1.116" height="1.284" x="-.058" y="-.142" style="color-interpolation-filters:sRGB"><feGaussianBlur id="feGaussianBlur16045" stdDeviation=".555"/></filter></defs><g id="layer1"><circle id="path31-2" cx="33.968" cy="33.959" r="32.419" style="fill:#862ca0;fill-opacity:1;stroke:none;stroke-width:.264583"/><circle id="path31-9" cx="-46.394" cy="12.438" r="32.419" transform="rotate(-120)" style="opacity:1;fill:url(#linearGradient7029);fill-opacity:1;stroke:none;stroke-width:.264583"/><circle id="path31" cx="33.968" cy="33.959" r="32.419" style="opacity:1;fill:url(#linearGradient5353);fill-opacity:1;stroke:none;stroke-width:.264583"/><path id="path242" d="M 32.964595,57.687178 C 47.217406,57.192234 64.136899,36.224251 47.953829,19.905299" style="fill:none;stroke:#fff;stroke-width:5;stroke-linecap:butt;stroke-linejoin:miter;stroke-miterlimit:4;stroke-dasharray:none;stroke-opacity:1"/><path id="path242-7" d="M 35.032459,11.020579 C 20.779648,11.51553 3.8601552,32.483506 20.043235,48.802456" style="fill:none;stroke:#fff;stroke-width:5;stroke-linecap:butt;stroke-linejoin:miter;stroke-miterlimit:4;stroke-dasharray:5,5;stroke-dashoffset:0;stroke-opacity:1"/><path id="path946" d="m 42.945413,14.863641 3.135254,11.894037 8.740163,-8.666945 z" style="opacity:1;fill:#fff;stroke:none;stroke-width:.264583px;stroke-linecap:butt;stroke-linejoin:miter;stroke-opacity:1"/><path id="path946-3" d="M 25.051129,53.843168 21.915875,41.949131 13.175713,50.616076 Z" style="fill:#fff;stroke:none;stroke-width:.264583px;stroke-linecap:butt;stroke-linejoin:miter;stroke-opacity:1"/><text id="text4976-4" x="34.159" y="39.004" xml:space="preserve" style="font-style:normal;font-variant:normal;font-weight:700;font-stretch:normal;font-size:14.1111px;line-height:1.25;font-family:Lato;-inkscape-font-specification:'Lato, Bold';font-variant-ligatures:normal;font-variant-caps:normal;font-variant-numeric:normal;font-variant-east-asian:normal;text-align:center;letter-spacing:0;word-spacing:0;text-anchor:middle;fill:#000;fill-opacity:1;stroke:#000;stroke-width:.264583;filter:url(#filter16043)"><tspan id="tspan5771-4" x="34.159" y="39.004">JRD</tspan></text><text id="text4976" x="34.159" y="39.004" xml:space="preserve" style="font-style:normal;font-variant:normal;font-weight:700;font-stretch:normal;font-size:14.1111px;line-height:1.25;font-family:Lato;-inkscape-font-specification:'Lato, Bold';font-variant-ligatures:normal;font-variant-caps:normal;font-variant-numeric:normal;font-variant-east-asian:normal;text-align:center;letter-spacing:0;word-spacing:0;text-anchor:middle;fill:#fff;fill-opacity:1;stroke:none;stroke-width:.264583"><tspan id="tspan5771" x="34.159" y="39.004">JRD</tspan></text></g><metadata id="metadata2701"/></svg>